<?xml version="1.0" encoding="utf-8"?>
<!-- Generator: Adobe Illustrator 25.4.1, SVG Export Plug-In . SVG Version: 6.00 Build 0)  -->
<svg version="1.1" id="Layer_1" xmlns="http://www.w3.org/2000/svg" xmlns:xlink="http://www.w3.org/1999/xlink" x="0px" y="0px"
	 viewBox="0 0 88 88" style="enable-background:new 0 0 88 88;" xml:space="preserve">
<style type="text/css">
	.st0{fill:#FFFFFF;filter:url(#Adobe_OpacityMaskFilter);}
	.st1{mask:url(#mask0_00000154387459305538315550000017795314647083681686_);}
	.st2{fill-rule:evenodd;clip-rule:evenodd;fill:#FFFFFF;}
	.st3{fill:#FFFFFF;}
</style>
<defs>
	<filter id="Adobe_OpacityMaskFilter" filterUnits="userSpaceOnUse" x="10.8" y="44.5" width="65.8" height="15.4">
		<feColorMatrix  type="matrix" values="1 0 0 0 0  0 1 0 0 0  0 0 1 0 0  0 0 0 1 0"/>
	</filter>
</defs>
<mask maskUnits="userSpaceOnUse" x="10.8" y="44.5" width="65.8" height="15.4" id="mask0_00000154387459305538315550000017795314647083681686_">
	<path class="st0" d="M10.8,44.5h65.8v15.4H10.8V44.5z"/>
</mask>
<g class="st1">
	<path class="st2" d="M15.5,56.7h1.3v-8.6h-1.3V56.7z M17,45.3c0,0.5-0.4,0.9-0.9,0.9c-0.5,0-0.9-0.4-0.9-0.9c0-0.5,0.4-0.9,0.9-0.9
		C16.6,44.5,17,44.8,17,45.3z"/>
	<path class="st2" d="M26.8,52.4c0-1.9-1.3-3.3-3.2-3.3c-1.9,0-3.2,1.4-3.2,3.3s1.3,3.3,3.2,3.3C25.5,55.6,26.8,54.3,26.8,52.4z
		 M28.1,48.1v11.8h-1.3v-5c-0.7,1.2-1.9,1.9-3.5,1.9c-2.5,0-4.3-1.8-4.3-4.4c0-2.6,1.8-4.4,4.3-4.4c1.6,0,2.8,0.7,3.5,1.9v-1.9H28.1
		z"/>
	<path class="st2" d="M39.1,48.1v8.6h-1.3v-1.9c-0.6,1.3-1.8,2-3.4,2c-2.1,0-3.3-1.3-3.3-3.4v-5.3h1.3v5c0,1.5,0.9,2.5,2.5,2.5
		c1.8,0,2.9-1.3,2.9-3.2v-4.2H39.1z"/>
	<path class="st2" d="M49.1,52.7V52c-0.2-1.7-1.4-2.9-3.2-2.9c-1.9,0-3.2,1.4-3.2,3.3c0,1.9,1.3,3.3,3.2,3.3
		C47.7,55.6,49,54.4,49.1,52.7z M50.4,48.1v8.6h-1.3v-1.8c-0.7,1.2-1.9,1.9-3.4,1.9c-2.5,0-4.3-1.8-4.3-4.4c0-2.6,1.7-4.4,4.2-4.4
		c1.6,0,2.8,0.7,3.5,1.9v-1.8H50.4z"/>
	<path class="st2" d="M58,56.7h1.3v-8.6H58V56.7z M59.5,45.3c0,0.5-0.4,0.9-0.9,0.9c-0.5,0-0.9-0.4-0.9-0.9c0-0.5,0.4-0.9,0.9-0.9
		C59.2,44.5,59.5,44.8,59.5,45.3z"/>
	<path class="st2" d="M66.6,56.1c-0.6,0.4-1.3,0.6-2,0.6c-1.3,0-2.3-0.9-2.3-2.8v-9.4h1.3v3.6h2.6v1.3h-2.6v4.4
		c0,1.2,0.4,1.8,1.2,1.8c0.4,0,0.9-0.2,1.4-0.4L66.6,56.1z"/>
	<path class="st2" d="M53.5,56.6h1.3V44.5h-1.3V56.6z"/>
	<path class="st2" d="M10.8,56.6h1.3V44.5h-1.3V56.6z"/>
	<path class="st2" d="M76.6,48.1v7.6c0,2.6-1.6,4.1-4.3,4.1c-1.3,0-2.7-0.6-3.6-1.4l0.4-0.9c0.8,0.7,2,1.2,3.1,1.2
		c1.9,0,3.1-1.1,3.1-3.1v-1.6c-0.6,1.2-1.7,1.8-3.2,1.8c-2.2,0-3.5-1.3-3.5-3.3v-4.5h1.3v4.2c0,1.5,0.9,2.4,2.5,2.4
		c1.9,0,3-1.3,3-3.3v-3.3H76.6z"/>
</g>
<path class="st3" d="M29.9,69v6.3c0,1.7-0.4,3-1.2,3.9c-0.8,0.9-2,1.3-3.6,1.3c-1.1,0-2-0.2-2.7-0.7c-0.7-0.5-1.2-1.2-1.6-2.1
	c-0.3,1-0.8,1.7-1.5,2.1c-0.7,0.4-1.6,0.7-2.7,0.7c-1.6,0-2.8-0.4-3.6-1.3c-0.8-0.9-1.2-2.2-1.2-3.9V69H13v6.3
	c0,1.5,0.3,2.6,0.9,3.3c0.6,0.7,1.5,1.1,2.8,1.1c1.2,0,2.2-0.4,2.8-1.1c0.6-0.7,0.9-1.8,0.9-3.3V69h1.1v6.2c0,1.5,0.3,2.6,0.9,3.3
	c0.6,0.7,1.5,1.1,2.8,1.1c1.2,0,2.2-0.4,2.8-1.1c0.6-0.7,0.9-1.8,0.9-3.3V69H29.9z M43.6,69v11.5h-1.1v-2.7
	c-0.5,0.9-1.1,1.6-1.9,2.1s-1.8,0.7-2.8,0.7c-1.1,0-2-0.2-2.9-0.7c-0.9-0.5-1.5-1.2-2-2.1c-0.5-0.9-0.7-1.9-0.7-3
	c0-1.1,0.2-2.1,0.7-3c0.5-0.9,1.2-1.6,2-2.1c0.9-0.5,1.8-0.7,2.9-0.7c1,0,1.9,0.2,2.8,0.7c0.8,0.5,1.5,1.2,1.9,2V69H43.6z
	 M37.9,79.6c0.9,0,1.7-0.2,2.4-0.6c0.7-0.4,1.3-1,1.7-1.7c0.4-0.7,0.6-1.6,0.6-2.5c0-0.9-0.2-1.8-0.6-2.5c-0.4-0.7-0.9-1.3-1.7-1.7
	c-0.7-0.4-1.5-0.6-2.4-0.6s-1.7,0.2-2.4,0.6c-0.7,0.4-1.2,1-1.7,1.7c-0.4,0.7-0.6,1.6-0.6,2.5c0,0.9,0.2,1.8,0.6,2.5
	c0.4,0.7,1,1.3,1.7,1.7C36.2,79.4,37,79.6,37.9,79.6z M50.3,80.6c-1,0-1.7-0.3-2.2-0.8c-0.5-0.6-0.8-1.3-0.8-2.3V64.2h1.1v13.2
	c0,0.7,0.2,1.3,0.5,1.7c0.3,0.4,0.8,0.6,1.5,0.6c0.4,0,0.7-0.1,1.1-0.2l0.1,0.9C51.2,80.5,50.7,80.6,50.3,80.6z M55.8,80.6
	c-1,0-1.7-0.3-2.2-0.8c-0.5-0.6-0.8-1.3-0.8-2.3V64.2h1.1v13.2c0,0.7,0.2,1.3,0.5,1.7c0.3,0.4,0.8,0.6,1.5,0.6
	c0.4,0,0.7-0.1,1.1-0.2l0.1,0.9C56.7,80.5,56.3,80.6,55.8,80.6z M62.9,79.6c0.7,0,1.4-0.1,2.1-0.4c0.6-0.3,1.2-0.7,1.6-1.2l0.6,0.7
	c-0.5,0.6-1.1,1.1-1.9,1.4c-0.7,0.3-1.6,0.5-2.5,0.5c-1.1,0-2.2-0.2-3.1-0.7c-0.9-0.5-1.6-1.2-2.1-2.1c-0.5-0.9-0.7-1.9-0.7-3
	c0-1.1,0.2-2.1,0.7-3c0.5-0.9,1.2-1.6,2-2.1c0.9-0.5,1.8-0.7,2.9-0.7c1,0,1.9,0.2,2.7,0.7c0.8,0.5,1.4,1.1,1.9,1.9
	c0.5,0.8,0.7,1.7,0.8,2.7l-9.7,1.9c0.3,1.1,0.8,1.9,1.7,2.5C60.7,79.3,61.7,79.6,62.9,79.6z M62.5,69.9c-0.9,0-1.6,0.2-2.3,0.6
	c-0.7,0.4-1.2,1-1.6,1.7c-0.4,0.7-0.6,1.5-0.6,2.5c0,0.2,0,0.4,0,0.7l8.8-1.7c-0.1-0.7-0.3-1.3-0.7-1.9c-0.4-0.6-0.9-1-1.5-1.3
	C63.9,70.1,63.2,69.9,62.5,69.9z M75.6,79.8c-0.3,0.3-0.6,0.5-1.1,0.6c-0.4,0.1-0.8,0.2-1.3,0.2c-1,0-1.8-0.3-2.3-0.8
	c-0.5-0.6-0.8-1.3-0.8-2.3v-11h1.1V69h3.7V70h-3.7v7.4c0,0.7,0.2,1.3,0.5,1.7c0.4,0.4,0.9,0.6,1.6,0.6c0.7,0,1.3-0.2,1.8-0.6
	L75.6,79.8z"/>
<g id="Layer_1-2">
	<path d="M44,7C23.6,7,7,23.6,7,44s16.6,37,37,37s37-16.6,37-37S64.4,7,44,7"/>
	<path class="st3" d="M59,60h-4.7V50H33.7v10H29V27.6h4.7v9.7h20.7v-9.7H59L59,60z M33.9,46.3h20.7v-5.2H33.9V46.3z"/>
</g>
</svg>
