<?xml version="1.0" encoding="utf-8"?>
<!-- Generator: Adobe Illustrator 25.4.1, SVG Export Plug-In . SVG Version: 6.00 Build 0)  -->
<svg version="1.1" id="Layer_1" xmlns="http://www.w3.org/2000/svg" xmlns:xlink="http://www.w3.org/1999/xlink" x="0px" y="0px"
	 viewBox="0 0 136 136" style="enable-background:new 0 0 136 136;" xml:space="preserve">
<style type="text/css">
	.st0{fill:#FFFFFF;filter:url(#Adobe_OpacityMaskFilter);}
	.st1{mask:url(#mask0_00000090260443201925783170000006639271633676941213_);}
	.st2{fill-rule:evenodd;clip-rule:evenodd;fill:#FFFFFF;}
	.st3{fill:#FFFFFF;}
</style>
<defs>
	<filter id="Adobe_OpacityMaskFilter" filterUnits="userSpaceOnUse" x="16.7" y="85.6" width="102.4" height="23.9">
		<feColorMatrix  type="matrix" values="1 0 0 0 0  0 1 0 0 0  0 0 1 0 0  0 0 0 1 0"/>
	</filter>
</defs>
<mask maskUnits="userSpaceOnUse" x="16.7" y="85.6" width="102.4" height="23.9" id="mask0_00000090260443201925783170000006639271633676941213_">
	<path class="st0" d="M16.7,85.6h102.4v23.9H16.7V85.6z"/>
</mask>
<g class="st1">
	<path class="st2" d="M24,104.5h2V91.2h-2V104.5z M26.4,86.9c0,0.8-0.6,1.3-1.3,1.3c-0.8,0-1.3-0.6-1.3-1.3c0-0.8,0.6-1.3,1.3-1.3
		C25.8,85.6,26.4,86.1,26.4,86.9z"/>
	<path class="st2" d="M41.7,97.9c0-3-2.1-5.1-5-5.1c-2.9,0-5,2.1-5,5.1c0,3,2.1,5.1,5,5.1C39.6,102.9,41.7,100.8,41.7,97.9z
		 M43.7,91.2v18.3h-2v-7.8c-1,1.9-2.9,3-5.4,3c-3.9,0-6.7-2.8-6.7-6.8s2.7-6.8,6.6-6.8c2.5,0,4.4,1.1,5.4,3v-2.9H43.7z"/>
	<path class="st2" d="M60.8,91.2v13.4h-2v-3c-0.9,2.1-2.8,3.1-5.2,3.1c-3.2,0-5.2-2-5.2-5.2v-8.2h2v7.7c0,2.4,1.4,3.8,3.8,3.8
		c2.9-0.1,4.5-2.1,4.5-5v-6.6H60.8z"/>
	<path class="st2" d="M76.4,98.4v-1c-0.2-2.7-2.2-4.6-5-4.6c-2.9,0-5,2.1-5,5.1c0,3,2.1,5.1,5,5.1C74.2,102.9,76.2,101.1,76.4,98.4z
		 M78.5,91.2v13.4h-2v-2.9c-1,1.9-2.9,3-5.3,3c-3.9,0-6.7-2.8-6.7-6.8c0-4,2.7-6.8,6.6-6.8c2.5,0,4.4,1.1,5.4,3v-2.9H78.5z"/>
	<path class="st2" d="M90.3,104.5h2V91.2h-2V104.5z M92.6,86.9c0,0.8-0.6,1.3-1.3,1.3c-0.8,0-1.3-0.6-1.3-1.3c0-0.8,0.6-1.3,1.3-1.3
		C92,85.6,92.6,86.1,92.6,86.9z"/>
	<path class="st2" d="M103.6,103.6c-1,0.6-2.1,1-3.1,1c-2.1,0-3.6-1.4-3.6-4.3V85.6h2v5.5h4.1v2h-4.1v6.9c0,1.9,0.7,2.8,1.9,2.8
		c0.7,0,1.4-0.3,2.2-0.7L103.6,103.6z"/>
	<path class="st2" d="M83.2,104.5h2V85.6h-2V104.5z"/>
	<path class="st2" d="M16.7,104.5h2V85.6h-2V104.5z"/>
	<path class="st2" d="M119.1,91.3v11.8c0,4-2.5,6.4-6.6,6.4c-2.1-0.1-4.2-0.9-5.6-2.2l0.6-1.4c1.2,1.1,3,1.8,4.8,1.9
		c3,0,4.8-1.8,4.8-4.7v-2.4c-0.9,1.8-2.6,2.8-5,2.8c-3.4,0-5.5-2-5.5-5.2v-7h2v6.5c0,2.4,1.5,3.8,3.9,3.8c2.9-0.1,4.6-2,4.6-5.1
		v-5.2H119.1z"/>
</g>
<g id="Layer_1-2">
	<path d="M68,0.5C30.6,0.5,0.5,30.6,0.5,68s30.1,67.5,67.5,67.5s67.5-30.1,67.5-67.5S105.4,0.5,68,0.5"/>
	<path class="st3" d="M95.4,97.3h-8.5V79.2H49.1v18.1h-8.5V37.9h8.5v17.7h37.8V37.9h8.5V97.3z M49.5,72.2h37.8V63H49.5V72.2z"/>
</g>
</svg>
